<svg xmlns="http://www.w3.org/2000/svg" width="278" height="60" viewBox="0 0 278 60"><defs><style>.cls-1{fill:#1488e5;fill-rule:evenodd}</style></defs><path id="形状_5" data-name="形状 5" class="cls-1" d="M814.713 56.283l5.949-10.483a.963.963 0 0 1 .808-.628.62.62 0 0 1 .593.628l2.142 10.484h-1l-.658-3.262h-5.04l-1.827 3.262h-.965zm7.676-4.031l-1.17-5.839-3.278 5.839h4.448zm5.671-6.967h.94l-1.97 11h-.941zM597.526 90.912a20.005 20.005 0 0 1-18.117-11.353 19.524 19.524 0 0 1 9.662-26.121 20.14 20.14 0 0 1 26.546 9.507 19.522 19.522 0 0 1-9.662 26.121 20.175 20.175 0 0 1-8.429 1.846m-.026-40.576a21.461 21.461 0 0 0-8.967 1.964 20.77 20.77 0 0 0-10.278 27.788A21.425 21.425 0 0 0 606.494 90.2a20.769 20.769 0 0 0 10.279-27.788A21.283 21.283 0 0 0 597.5 50.336m44.06-1.426v-.008a125.921 125.921 0 0 0-15.927 4.014 11.191 11.191 0 0 1-10.384-2.076l-.015.007a27.56 27.56 0 0 0-29.32-4.047 26.745 26.745 0 0 0-15.695 24.7h-.009a10.834 10.834 0 0 1-5.059 9.162 124.136 124.136 0 0 0-13.363 9.424v.008a1.782 1.782 0 0 0-.63 2.248 1.841 1.841 0 0 0 2.429.87l11.977-5.5 8.036-3.672a27.478 27.478 0 0 0 35.41 11.485 26.659 26.659 0 0 0 13.814-34.075l8.029-3.684 11.978-5.5a1.785 1.785 0 0 0 .885-2.388 1.837 1.837 0 0 0-2.156-.968zM574.174 74.4l-.026-.163-.015-.117a23.074 23.074 0 0 1 13.354-24 23.791 23.791 0 0 1 27.524 5.642l.009.01a4.716 4.716 0 0 1 .638 1 4.772 4.772 0 0 1-2.189 6.3v.006l-32.59 14.956v-.006a4.92 4.92 0 0 1-6.316-2.4 4.717 4.717 0 0 1-.389-1.228zm33.259 17.8a23.737 23.737 0 0 1-30.465-9.712l41.859-19.207h.008l.62-.285A23.027 23.027 0 0 1 607.433 92.2zm-29.88-9.982l-.586.269zm76.114-8.929c0-12.216 3.709-17.284 14.874-17.284 11.3 0 14.624 5.767 14.624 14.636 0 1.021-.038 2.439-.1 3.479-3.92.643-11.991 1.38-16.795 1.57l-8.956.359c.634 7.054 2.229 11.421 12.2 11.421a85.526 85.526 0 0 0 11.992-.983l.365 3.026a86.129 86.129 0 0 1-14.156 1.087c-11.089 0-14.048-7.322-14.048-17.307zm13.49-.605c3.19-.151 8.821-.586 12.319-1 .058-.775.077-1.872.077-2.685 0-5.957-2.806-9.928-11.012-9.928-9.166 0-11.3 4.311-11.3 14.069zm24.234-26.72c0-2.156.48-2.969 2.152-2.969s2.172.813 2.172 2.969c0 2.137-.442 2.893-2.172 2.893s-2.152-.752-2.152-2.889zm.365 10.495h3.574v33.683h-3.574V56.463zm15.3 42.4a77.33 77.33 0 0 0 11.354 1.021c8.321 0 10.147-2.213 10.147-8.093v-3.348a40.583 40.583 0 0 1-10.263 1.4c-10.089 0-14.124-4.216-14.124-16.9 0-12.727 4.535-16.925 15.22-16.925A28.649 28.649 0 0 1 732 58.619c.1 1.777.135 3.706.135 5.578V92.94c0 8.3-5.553 10.06-12.761 10.06a77.433 77.433 0 0 1-12.644-1.173zm.731-25.925c0 10.287 2.287 13.8 11.914 13.8a30.732 30.732 0 0 0 8.86-1.456V66.391c0-1.626-.039-3.914-.1-5.6a24.268 24.268 0 0 0-9.071-1.7c-8.609.001-11.607 3.991-11.607 13.843zm33.824.359c0-12.216 3.709-17.284 14.874-17.284 11.3 0 14.625 5.767 14.625 14.636a66.83 66.83 0 0 1-.1 3.479c-3.921.643-11.992 1.38-16.8 1.57l-8.955.359c.634 7.054 2.229 11.421 12.2 11.421a85.526 85.526 0 0 0 11.992-.983l.365 3.026a86.139 86.139 0 0 1-14.157 1.083c-11.089 0-14.048-7.322-14.048-17.307zm13.49-.605c3.191-.151 8.821-.586 12.319-1 .057-.775.076-1.872.076-2.685 0-5.957-2.8-9.928-11.011-9.928-9.167 0-11.3 4.311-11.3 14.069zm28.419 17.454h-3.574V64.348c0-1.872.058-3.8.135-5.578a42.8 42.8 0 0 1 15.45-2.761c11.512 0 12.665 5.389 12.665 12.14v21.993h-3.575V69c0-6.77-1.249-9.871-10.473-9.871a34.511 34.511 0 0 0-10.532 1.834c-.057 1.7-.1 3.99-.1 5.6v23.58z" transform="translate(-551 -43)"/></svg>